<?xml version="1.0" standalone="no"?>
<!DOCTYPE svg PUBLIC "-//W3C//DTD SVG 20010904//EN"
 "http://www.w3.org/TR/2001/REC-SVG-20010904/DTD/svg10.dtd">
<svg version="1.0" xmlns="http://www.w3.org/2000/svg"
 width="398.000000pt" height="250.000000pt" viewBox="0 0 398.000000 250.000000"
 preserveAspectRatio="xMidYMid meet">
<metadata>
Created by potrace 1.16, written by Peter Selinger 2001-2019
</metadata>
<g transform="translate(0.000000,250.000000) scale(0.100000,-0.100000)"
fill="#000000" stroke="none">
<path d="M2873 1936 c-139 -46 -217 -143 -264 -331 -15 -58 -26 -85 -34 -81
-7 2 -22 -2 -32 -9 -35 -25 -45 -66 -39 -161 4 -49 7 -132 9 -184 3 -127 23
-168 140 -283 85 -85 89 -90 83 -123 -6 -29 -11 -34 -35 -34 -16 0 -31 -6 -34
-14 -8 -19 3 -132 18 -198 12 -52 11 -98 -2 -98 -3 0 -23 16 -46 35 -22 19
-49 35 -60 35 -19 0 -20 5 -14 96 3 62 11 104 21 120 9 13 13 24 8 24 -26 0
-136 -46 -261 -110 -78 -40 -144 -70 -145 -69 -10 12 -116 249 -121 271 -6 23
-2 30 32 52 21 14 53 30 71 37 35 12 42 38 16 60 -12 10 -24 10 -60 1 -62 -17
-63 -16 -57 21 3 19 -2 49 -11 71 l-16 38 -75 -5 c-85 -5 -148 -37 -166 -84
-12 -31 3 -116 32 -182 17 -40 18 -46 4 -61 -8 -9 -15 -23 -15 -31 0 -21 49
-161 61 -175 6 -7 16 -35 24 -61 7 -26 29 -91 49 -143 50 -134 91 -169 186
-161 14 1 94 32 178 68 84 36 155 63 158 60 5 -5 -12 -232 -22 -294 l-5 -33
441 0 440 0 0 25 c0 32 18 32 26 0 l6 -25 150 0 151 0 -6 44 c-6 44 -126 358
-190 498 -39 84 -56 99 -150 133 -34 12 -71 26 -81 30 -15 7 -18 5 -14 -7 10
-24 -47 -112 -142 -220 -23 -26 -28 -28 -59 -19 -26 8 -38 7 -55 -4 -11 -8
-27 -15 -36 -15 -9 0 -33 -9 -55 -20 -47 -24 -49 -24 -42 -6 3 8 1 16 -5 18
-19 7 88 102 173 155 46 28 96 67 112 87 l27 36 -25 6 c-43 11 -28 28 45 53
135 46 224 124 246 216 4 17 22 47 40 67 41 45 80 121 89 172 6 30 3 43 -13
65 -19 26 -19 30 -5 82 9 33 16 102 17 179 1 112 -1 130 -22 172 -41 83 -124
139 -288 194 -97 32 -282 43 -351 20z m52 -186 c141 -24 243 -49 397 -98 l117
-37 11 -50 c6 -33 6 -64 0 -90 -5 -22 -10 -77 -10 -122 0 -89 -48 -327 -79
-398 -35 -78 -134 -141 -267 -170 -114 -26 -196 -17 -291 30 -133 66 -263 221
-263 313 0 89 80 362 133 452 9 14 20 43 26 66 14 53 66 124 90 124 10 0 71
-9 136 -20z m-1024 -838 c21 3 24 0 21 -27 l-2 -30 20 25 c11 14 20 28 20 32
0 4 26 12 58 18 31 6 77 15 101 21 59 13 77 -4 26 -25 -20 -9 -59 -32 -85 -51
-26 -19 -56 -35 -67 -35 -11 0 -41 -7 -66 -16 -38 -13 -51 -14 -62 -4 -16 13
-45 101 -45 134 1 18 4 17 28 -12 21 -25 35 -33 53 -30z m1062 -170 c86 -4 97
-6 97 -23 0 -10 7 -22 15 -26 13 -8 12 -12 -5 -31 -30 -32 -74 -52 -138 -62
-100 -17 -221 16 -230 61 -1 8 11 21 27 30 22 13 31 27 36 57 l6 40 47 -21
c34 -15 74 -22 145 -25z"/>
<path d="M2695 1405 c-71 -70 23 -174 157 -175 51 0 59 3 82 31 53 63 23 124
-75 153 -80 24 -135 21 -164 -9z"/>
<path d="M3086 1319 c-21 -16 -26 -29 -26 -64 0 -72 56 -109 163 -110 65 0 70
2 98 33 54 61 27 117 -72 146 -74 22 -130 21 -163 -5z"/>
<path d="M2852 915 c-28 -61 -7 -104 55 -112 55 -7 86 21 81 75 -3 32 -6 37
-32 39 -16 1 -42 7 -59 13 -16 5 -31 10 -32 10 -1 0 -7 -11 -13 -25z"/>
</g>
</svg>
